<svg width="967" height="116" viewBox="0 0 967 116" fill="none" xmlns="http://www.w3.org/2000/svg">
<path d="M933.391 115.91C910.915 115.91 899.678 108.364 899.678 93.2735V92.1497C899.678 90.2232 900.962 89.0995 902.888 89.0995H914.447C916.213 89.0995 917.177 90.0627 917.177 91.8286V92.7919C917.177 98.7318 922.153 101.461 933.391 101.461C943.666 101.461 948.963 98.2502 948.963 92.1497V90.2232C948.963 85.407 946.716 83.6411 941.739 82.9989L921.03 80.4303C905.778 78.5038 899.678 71.9217 899.678 58.5969V57.3126C899.678 40.9376 911.558 31.6263 932.749 31.6263C954.261 31.6263 965.178 39.1716 965.178 54.1018V54.9045C965.178 56.831 963.894 58.1153 962.128 58.1153H950.569C948.803 58.1153 947.679 57.1521 947.679 55.3861V54.5834C947.679 48.804 943.023 46.0748 932.749 46.0748C922.153 46.0748 917.498 48.9646 917.498 55.2256V56.831C917.498 61.8077 919.906 63.5737 925.043 64.2158L945.753 66.7845C960.843 68.7109 966.783 75.293 966.783 88.4573V90.2232C966.783 106.438 954.582 115.91 933.391 115.91Z" fill="white"/>
<path d="M816.245 114.144C812.874 114.144 810.626 111.896 810.626 108.525V54.744L803.402 47.5197C800.352 44.4694 800.03 40.6165 803.081 37.5662L806.292 34.3555C809.342 31.3052 813.195 31.6263 816.245 34.6765L824.433 42.864C829.409 35.4792 837.597 31.6263 848.353 31.6263C868.26 31.6263 881.424 43.3457 881.424 64.2158V108.525C881.424 111.896 879.177 114.144 875.805 114.144H867.778C864.407 114.144 862.159 111.896 862.159 108.525V64.2158C862.159 53.2991 856.701 47.3592 846.105 47.3592C835.51 47.3592 829.891 53.1386 829.891 64.2158V108.525C829.891 111.896 827.643 114.144 824.272 114.144H816.245Z" fill="white"/>
<path d="M763.605 23.4387C758.468 23.4387 755.578 20.549 755.578 15.4117V9.31118C755.578 4.17391 758.468 1.28421 763.605 1.28421H770.187C775.325 1.28421 778.214 4.17391 778.214 9.31118V15.4117C778.214 20.549 775.325 23.4387 770.187 23.4387H763.605ZM781.425 114.144C764.247 114.144 758.95 108.204 758.95 93.9155V48.9645H749.157C746.588 48.9645 744.822 47.3591 744.822 44.7904V37.5662C744.822 34.9975 746.588 33.3921 749.157 33.3921H771.472C775.967 33.3921 778.214 35.3186 778.214 40.1348V92.7918C778.214 96.8053 779.499 98.2501 783.031 98.2501H789.452C792.021 98.2501 793.787 99.8555 793.787 102.585V109.327C793.787 112.378 792.021 114.144 789.131 114.144H781.425Z" fill="white"/>
<path d="M722.186 15.4117C722.186 20.549 725.075 23.4387 730.213 23.4387H736.795C741.932 23.4387 744.822 20.549 744.822 15.4117V9.31118C744.822 4.17391 741.932 1.28421 736.795 1.28421H730.213C725.075 1.28421 722.186 4.17391 722.186 9.31118V15.4117Z" fill="white"/>
<path d="M648.54 114.625C644.366 114.625 641.636 112.699 640.673 108.364L625.904 42.3825C625.582 40.9376 625.422 39.6533 625.422 38.6901C625.422 35.3187 627.027 33.3923 630.88 33.3923H637.141C640.994 33.3923 642.921 35.1582 643.723 39.0112L655.282 95.5211L671.015 43.3457C672.621 37.8874 674.708 35.8004 679.363 35.8004H683.056C687.711 35.8004 689.798 38.0479 691.404 43.3457L707.137 95.5211L718.695 39.0112C719.498 35.1582 721.425 33.3923 725.278 33.3923H730.736C734.589 33.3923 736.194 35.3187 736.194 38.6901C736.194 39.6533 736.034 40.9376 735.713 42.3825L720.943 108.364C719.98 112.699 717.251 114.625 713.077 114.625H702.32C697.986 114.625 695.738 112.699 694.293 108.204L680.969 64.3764L667.644 108.204C666.199 112.699 664.112 114.625 659.777 114.625H648.54Z" fill="white"/>
<path d="M577.939 114.144C574.568 114.144 572.32 111.896 572.32 108.525V18.141H545.189C541.657 18.141 539.73 16.2146 539.73 12.6827V7.22434C539.73 3.69247 541.657 1.76599 545.189 1.76599H619.198C622.729 1.76599 624.656 3.69247 624.656 7.22434V12.6827C624.656 16.2146 622.729 18.141 619.198 18.141H592.066V108.525C592.066 111.896 589.819 114.144 586.447 114.144H577.939Z" fill="white"/>
<path d="M492.833 114.144C475.655 114.144 470.357 108.204 470.357 93.9157V7.86643C470.357 3.05025 473.408 0 478.224 0H481.756C486.572 0 489.622 3.05025 489.622 7.86643V92.7919C489.622 96.8054 490.906 98.2502 494.438 98.2502H500.86C503.429 98.2502 505.195 99.8556 505.195 102.585V109.327C505.195 112.378 503.429 114.144 500.539 114.144H492.833Z" fill="white"/>
<path d="M406.672 115.91C387.568 115.91 376.33 107.08 376.33 91.9892V90.7048C376.33 74.1693 386.765 66.4634 408.92 66.4634C414.539 66.4634 420.318 67.1055 425.937 68.3898V56.6705C425.937 49.7673 421.442 46.5565 411.649 46.5565C402.177 46.5565 398.003 48.9646 398.003 54.744V55.5467C398.003 57.7942 396.879 58.918 394.632 58.918H383.073C380.825 58.918 379.541 57.6337 379.541 55.3861V54.5834C379.541 39.9743 391.1 31.6263 411.488 31.6263C433.643 31.6263 445.041 40.456 445.041 57.9548V92.7919L452.265 100.016C455.316 103.066 455.637 106.919 452.586 109.97L449.376 113.18C446.325 116.231 442.472 115.91 439.422 112.859L431.395 104.832C426.097 111.736 417.268 115.91 406.672 115.91ZM395.113 91.0259C395.113 97.9291 400.09 101.3 409.883 101.3C419.194 101.3 425.937 96.0027 425.937 88.6178V81.233C420.8 79.7882 415.823 79.146 410.525 79.146C400.25 79.146 395.113 82.6779 395.113 89.7416V91.0259Z" fill="white"/>
<path d="M317.464 115.91C297.557 115.91 284.393 104.19 284.393 83.3201V39.0112C284.393 35.6398 286.64 33.3923 290.011 33.3923H298.038C301.41 33.3923 303.657 35.6398 303.657 39.0112V83.3201C303.657 94.2368 309.116 100.177 319.711 100.177C330.307 100.177 335.926 94.3973 335.926 83.3201V39.0112C335.926 35.6398 338.173 33.3923 341.545 33.3923H349.572C352.943 33.3923 355.191 35.6398 355.191 39.0112V92.7919L362.415 100.016C365.465 103.066 365.786 106.919 362.736 109.97L359.525 113.18C356.475 116.231 352.622 115.91 349.572 112.859L341.384 104.672C336.407 112.057 328.22 115.91 317.464 115.91Z" fill="white"/>
<path d="M256.298 114.144C237.354 114.144 230.611 108.043 230.611 90.8653V48.9645H220.176C217.608 48.9645 215.842 47.3591 215.842 44.7905V37.5662C215.842 34.9975 217.608 33.3921 220.176 33.3921H230.611V17.6593C230.611 13.3247 233.341 10.5955 237.515 10.5955H242.973C247.147 10.5955 249.876 13.3247 249.876 17.6593V33.3921H266.091C268.659 33.3921 270.425 34.9975 270.425 37.5662V44.7905C270.425 47.3591 268.659 48.9645 266.091 48.9645H249.876V90.7048C249.876 96.3237 251.803 98.2501 257.261 98.2501H266.091C268.659 98.2501 270.425 99.8555 270.425 102.585V109.327C270.425 112.378 268.659 114.144 265.77 114.144H256.298Z" fill="white"/>
<path d="M170.481 114.144C167.11 114.144 164.862 111.896 164.862 108.525V54.744L157.638 47.5197C154.588 44.4694 154.267 40.6165 157.317 37.5662L160.528 34.3554C163.578 31.3052 167.431 31.6263 170.481 34.6765L179.632 43.8273C183.646 36.7635 189.907 32.75 197.934 32.75H199.86C207.245 32.75 211.098 35.8003 211.098 41.4192V43.0246C211.098 48.0013 207.566 51.0515 202.108 51.0515H199.86C189.425 51.0515 184.127 56.6704 184.127 67.9082V108.525C184.127 111.896 181.88 114.144 178.508 114.144H170.481Z" fill="white"/>
<path d="M117.84 23.4387C112.703 23.4387 109.813 20.549 109.813 15.4117V9.31118C109.813 4.17391 112.703 1.28421 117.84 1.28421H124.422C129.559 1.28421 132.449 4.17391 132.449 9.31118V15.4117C132.449 20.549 129.559 23.4387 124.422 23.4387H117.84ZM135.66 114.144C118.482 114.144 113.184 108.204 113.184 93.9155V48.9645H103.391C100.823 48.9645 99.0566 47.3591 99.0566 44.7904V37.5662C99.0566 34.9975 100.823 33.3921 103.391 33.3921H125.706C130.201 33.3921 132.449 35.3186 132.449 40.1348V92.7918C132.449 96.8053 133.733 98.2501 137.265 98.2501H143.687C146.255 98.2501 148.021 99.8555 148.021 102.585V109.327C148.021 112.378 146.255 114.144 143.366 114.144H135.66Z" fill="white"/>
<path d="M41.9008 114.625C35.6398 114.625 32.9106 112.378 30.6631 105.314L0.963237 11.3984C0.321079 9.4719 0 8.02704 0 6.90326C0 3.85301 1.92647 1.76599 5.93996 1.76599H13.0037C17.1777 1.76599 18.7831 3.21085 20.228 7.86649L46.717 95.5211L73.206 7.86649C74.6509 3.21085 76.2563 1.76599 80.4303 1.76599H86.8519C90.8654 1.76599 92.7919 3.85301 92.7919 6.90326C92.7919 8.02704 92.4708 9.4719 91.8286 11.3984L62.1288 105.314C59.8813 112.378 57.1521 114.625 50.891 114.625H41.9008Z" fill="white"/>
</svg>
